<svg width="108" height="120" viewBox="0 0 108 120" fill="none" xmlns="http://www.w3.org/2000/svg">
<g filter="url(#filter0_d)">
<path d="M63.0671 20H57.7337H56.4004H35.0671H33.7337H28.4004C23.9884 20 20.4004 23.588 20.4004 28V92C20.4004 96.412 23.9884 100 28.4004 100H63.0671C67.4791 100 71.0671 96.412 71.0671 92V84H80.4004C84.0764 84 87.0671 81.0093 87.0671 77.3333V74.6667C87.0671 73.9307 86.4711 73.3333 85.7337 73.3333H79.0671V45.3333C79.0671 41.6573 76.0764 38.6667 72.4004 38.6667H71.0671V28C71.0671 23.588 67.4791 20 63.0671 20ZM52.6457 22.6667C52.4964 23.0853 52.4004 23.5307 52.4004 24C52.4004 24.7347 51.8031 25.3333 51.0671 25.3333H40.4004C39.6644 25.3333 39.0671 24.7347 39.0671 24C39.0671 23.5307 38.9711 23.0853 38.8217 22.6667H52.6457ZM68.4004 92C68.4004 94.9413 66.0084 97.3333 63.0671 97.3333H28.4004C25.4591 97.3333 23.0671 94.9413 23.0671 92V28C23.0671 25.0587 25.4591 22.6667 28.4004 22.6667H33.7337H35.0671C35.8031 22.6667 36.4004 23.2653 36.4004 24C36.4004 26.2053 38.1951 28 40.4004 28H51.0671C53.2724 28 55.0671 26.2053 55.0671 24C55.0671 23.2653 55.6644 22.6667 56.4004 22.6667H57.7337H63.0671C66.0084 22.6667 68.4004 25.0587 68.4004 28V38.6667H45.7337C42.5151 38.6667 39.8217 40.9613 39.2017 44H32.4004C31.6631 44 31.0671 44.5973 31.0671 45.3333V69.3333C31.0671 70.0693 31.6631 70.6667 32.4004 70.6667H47.0671V68H33.7337V46.6667H47.0671V44H41.9791C42.5311 42.452 43.9977 41.3333 45.7337 41.3333C47.9391 41.3333 49.7337 43.128 49.7337 45.3333V78.6667C49.7337 81.608 52.1257 84 55.0671 84H68.4004V92ZM84.4004 77.3333C84.4004 79.5387 82.6057 81.3333 80.4004 81.3333H59.6844C60.1404 80.548 60.4004 79.6373 60.4004 78.6667V76H84.4004V77.3333ZM76.4004 45.3333V73.3333H59.0671C58.3297 73.3333 57.7337 73.9307 57.7337 74.6667V78.6667C57.7337 80.1373 56.5377 81.3333 55.0671 81.3333C53.5964 81.3333 52.4004 80.1373 52.4004 78.6667V45.3333C52.4004 43.8267 51.8791 42.4507 51.0324 41.3333H72.4004C74.6057 41.3333 76.4004 43.128 76.4004 45.3333Z" fill="#DDC472"/>
<path d="M28.3991 90.6666V29.3333C28.3991 28.5986 28.9964 27.9999 29.7324 27.9999H32.3991V25.3333H29.7324C27.5271 25.3333 25.7324 27.1279 25.7324 29.3333V90.6666C25.7324 92.8719 27.5271 94.6666 29.7324 94.6666H60.3991V91.9999H29.7324C28.9964 91.9999 28.3991 91.4012 28.3991 90.6666Z" fill="#DDC472"/>
<path d="M32.4004 73.3333H47.0671V75.9999H32.4004V73.3333Z" fill="#DDC472"/>
<path d="M32.4004 78.6667H47.0671V81.3334H32.4004V78.6667Z" fill="#DDC472"/>
<path d="M32.4004 84H47.0671V86.6667H32.4004V84Z" fill="#DDC472"/>
<path d="M32.4004 32H64.4004V34.6667H32.4004V32Z" fill="#DDC472"/>
<path d="M61.7337 62.6667H63.0671V64.0001H65.7337V62.6667H67.0671C67.8044 62.6667 68.4004 62.0694 68.4004 61.3334V57.3334C68.4004 56.5974 67.8044 56.0001 67.0671 56.0001H63.0671V54.6667H68.4004V53.3334C68.4004 52.5974 67.8044 52.0001 67.0671 52.0001H65.7337V50.6667H63.0671V52.0001H61.7337C60.9964 52.0001 60.4004 52.5974 60.4004 53.3334V57.3334C60.4004 58.0694 60.9964 58.6667 61.7337 58.6667H65.7337V60.0001H60.4004V61.3334C60.4004 62.0694 60.9964 62.6667 61.7337 62.6667Z" fill="#DDC472"/>
<path d="M64.3991 68.0001C70.2804 68.0001 75.0658 63.2147 75.0658 57.3334C75.0658 51.4521 70.2804 46.6667 64.3991 46.6667C58.5178 46.6667 53.7324 51.4521 53.7324 57.3334C53.7324 63.2147 58.5178 68.0001 64.3991 68.0001ZM64.3991 49.3334C68.8111 49.3334 72.3991 52.9214 72.3991 57.3334C72.3991 61.7454 68.8111 65.3334 64.3991 65.3334C59.9871 65.3334 56.3991 61.7454 56.3991 57.3334C56.3991 52.9214 59.9871 49.3334 64.3991 49.3334Z" fill="#DDC472"/>
</g>
<defs>
<filter id="filter0_d" x="0.400391" y="0" width="106.667" height="120" filterUnits="userSpaceOnUse" color-interpolation-filters="sRGB">
<feFlood flood-opacity="0" result="BackgroundImageFix"/>
<feColorMatrix in="SourceAlpha" type="matrix" values="0 0 0 0 0 0 0 0 0 0 0 0 0 0 0 0 0 0 127 0"/>
<feOffset/>
<feGaussianBlur stdDeviation="10"/>
<feColorMatrix type="matrix" values="0 0 0 0 0.756863 0 0 0 0 0.615686 0 0 0 0 0.454902 0 0 0 0.4 0"/>
<feBlend mode="normal" in2="BackgroundImageFix" result="effect1_dropShadow"/>
<feBlend mode="normal" in="SourceGraphic" in2="effect1_dropShadow" result="shape"/>
</filter>
</defs>
</svg>
