<svg width="120" height="120" viewBox="0 0 120 120" fill="none" xmlns="http://www.w3.org/2000/svg">
<g filter="url(#filter0_d)">
<path d="M89.5515 56.952C88.4502 56.0281 86.8729 55.9667 85.7089 56.8054L84.4036 57.7467C84.1649 57.1667 83.7503 56.664 83.1956 56.3094C82.1823 55.6627 80.9143 55.6481 79.8837 56.2787C79.345 56.6094 78.9237 57.0867 78.7171 57.5587L75.7531 62.8692C75.3571 62.5813 74.8345 62.5146 74.3811 62.7399L67.108 66.3678L55.7322 51.2002C55.5695 50.9828 55.3442 50.8202 55.0882 50.7348L49.943 49.0202C51.2043 48.6042 52.3123 47.7869 53.0696 46.6509C54.0962 45.1163 54.3589 43.1537 53.7736 41.4004L53.4082 40.3017C53.2936 39.9564 53.2349 39.5991 53.2349 39.2377V29.2833C56.3828 26.222 57.1735 21.8128 57.2162 21.5528C57.2815 21.1661 57.1722 20.7714 56.9175 20.4715C56.6642 20.1728 56.2922 20.0008 55.9002 20.0008H41.2485C40.1312 19.9928 30.1861 19.9795 26.6101 23.5167C25.7101 24.4074 25.2342 25.4967 25.2342 26.6673C25.2342 34.8152 29.1514 45.3576 29.3181 45.8029C29.5141 46.3229 30.0127 46.6669 30.5674 46.6669C30.582 46.6669 30.5967 46.6669 30.6114 46.6656C30.986 46.6536 31.318 46.4749 31.5554 46.2069L33.3513 48.6015L25.0062 50.7082C24.4702 50.8442 24.0728 51.2975 24.0088 51.8481L20.0089 86.5141C19.9649 86.8914 20.0849 87.2687 20.3383 87.5527C20.5903 87.8367 20.9529 87.9994 21.3329 87.9994V91.9993C21.3329 94.2046 23.1275 95.9992 25.3328 95.9992H29.3327V99.9991H31.9993V90.666H35.9006C36.6379 90.666 37.2339 90.07 37.2339 89.3327V82.6662H45.3324V89.3327C45.3324 90.07 45.9284 90.666 46.6657 90.666H49.3323V99.9991H51.9989V90.666H53.2336C53.9709 90.666 54.5669 90.07 54.5669 89.3327V68.5331L64.3934 78.2796C64.7693 78.6556 65.3373 78.7676 65.8293 78.5703L81.5397 72.2624C81.9383 72.1024 82.2343 71.7597 82.337 71.3437C82.385 71.1464 82.385 70.9451 82.3437 70.7518C84.4116 69.7184 87.1462 67.9665 88.4129 66.4652L91.5581 62.7412C92.0968 62.1026 92.3568 61.2946 92.2861 60.4626C92.2154 59.6306 91.8261 58.876 91.1888 58.3373L89.5515 56.952ZM50.8763 41.1444L51.243 42.2443C51.5683 43.2203 51.4216 44.315 50.8496 45.1696C50.227 46.1083 49.1817 46.6669 48.055 46.6669H35.2339L32.6087 43.167L35.5633 33.3179C37.6926 33.2659 42.8898 33.0285 48.1617 31.9739C49.047 31.7966 49.8417 31.5152 50.567 31.1659V39.2377C50.567 39.8857 50.671 40.527 50.8763 41.1444ZM42.4871 59.8453L41.2338 62.3519L39.9805 59.8453L41.2338 54.8307L42.4871 59.8453ZM27.9008 26.6673C27.9008 26.3767 27.9621 25.9313 28.4848 25.414C30.778 23.1461 38.0246 22.6661 40.9725 22.6661C41.0618 22.6661 41.1512 22.6661 41.2325 22.6674H54.1629C53.4389 24.8274 51.6309 28.562 47.6364 29.3606C41.1872 30.6499 34.6326 30.6672 34.5673 30.6672C33.9793 30.6672 33.4593 31.0539 33.29 31.6179L30.5047 40.903C29.3661 37.1431 27.9008 31.3846 27.9008 26.6673ZM29.3327 93.3326H25.3328C24.5968 93.3326 23.9995 92.7353 23.9995 91.9993V87.9994H27.9994V89.3327C27.9994 90.07 28.5954 90.666 29.3327 90.666V93.3326ZM34.5673 87.9994H30.666V66.6665H27.9994V85.3328H22.8289L26.5515 53.0681L34.5673 51.0442V87.9994ZM37.2339 79.9996V49.3335H39.8605L37.2752 59.6773C37.1966 59.9853 37.2339 60.312 37.3752 60.596L40.0419 65.9292C40.2672 66.3812 40.7285 66.6665 41.2338 66.6665C41.7392 66.6665 42.2005 66.3812 42.4271 65.9292L45.0937 60.596C45.2351 60.3106 45.2724 59.9853 45.1937 59.6773L42.6071 49.3335H45.3324V79.9996H37.2339ZM65.648 75.769L54.1722 64.3866C53.7896 64.0079 53.2162 63.8972 52.7203 64.1026C52.2243 64.3092 51.9003 64.7959 51.9003 65.3332V87.9994H47.999V51.1842L53.8496 53.1334L64.6813 67.5771L64.5427 67.6478L65.7333 70.0331L74.6411 65.5905L78.8237 70.4798L65.648 75.769ZM89.5235 61.0186L86.3782 64.7439C85.3729 65.9332 82.6276 67.7011 80.713 68.5878L77.6277 64.9812L81.097 58.756C81.1343 58.672 81.197 58.6 81.2757 58.552C81.489 58.42 81.6703 58.5 81.761 58.5573C81.8503 58.6147 81.997 58.7493 81.969 58.9973L81.8397 60.1333C81.7797 60.6573 82.0343 61.1666 82.4903 61.4346C82.9463 61.7026 83.517 61.6733 83.9436 61.3653L87.2689 58.9693C87.4382 58.8453 87.6729 58.856 87.8315 58.9907L89.4702 60.376C89.5968 60.4813 89.6248 60.616 89.6302 60.6853C89.6368 60.7546 89.6302 60.892 89.5235 61.0186Z" fill="#DDC472"/>
<path d="M39.999 92H42.6656V99.9998H39.999V92Z" fill="#DDC472"/>
<path d="M99.0859 37.4041L91.9981 35.0415V33.3349H93.3314C93.91 33.3349 94.4207 32.9629 94.5993 32.4149C94.778 31.8656 94.582 31.2643 94.1154 30.9243L90.6648 28.415V21.3351C90.6648 20.5978 90.0688 20.0018 89.3315 20.0018H83.9982C83.2609 20.0018 82.6649 20.5978 82.6649 21.3351V22.5951L79.449 20.2565C78.9823 19.9152 78.3477 19.9152 77.881 20.2565L63.2147 30.9229C62.7467 31.2629 62.552 31.8642 62.7307 32.4136C62.9093 32.9629 63.42 33.3349 63.9986 33.3349H65.3319V49.3345H61.332V52.0012H66.6653H90.6648H98.6646C99.4019 52.0012 99.9979 51.4052 99.9979 50.6679V38.6681C99.9979 38.0934 99.6312 37.5855 99.0859 37.4041ZM78.665 22.9831L83.2142 26.291C83.6196 26.587 84.1556 26.6257 84.6035 26.4017C85.0502 26.175 85.3315 25.715 85.3315 25.2137V22.6684H87.9981V29.0923C87.9981 29.519 88.2021 29.919 88.5475 30.1709L89.2315 30.6683H68.0986L78.665 22.9831ZM81.3316 49.3345H75.9984V41.3347H81.3316V49.3345ZM83.9982 49.3345V40.0014C83.9982 39.2641 83.4022 38.6681 82.6649 38.6681H74.6651C73.9278 38.6681 73.3318 39.2641 73.3318 40.0014V49.3345H67.9986V33.3349H89.3315V49.3345H83.9982ZM97.3313 49.3345H91.9981V37.8508L97.3313 39.6294V49.3345Z" fill="#DDC472"/>
</g>
<defs>
<filter id="filter0_d" x="0" y="0" width="119.998" height="120" filterUnits="userSpaceOnUse" color-interpolation-filters="sRGB">
<feFlood flood-opacity="0" result="BackgroundImageFix"/>
<feColorMatrix in="SourceAlpha" type="matrix" values="0 0 0 0 0 0 0 0 0 0 0 0 0 0 0 0 0 0 127 0"/>
<feOffset/>
<feGaussianBlur stdDeviation="10"/>
<feColorMatrix type="matrix" values="0 0 0 0 0.866667 0 0 0 0 0.768627 0 0 0 0 0.447059 0 0 0 0.4 0"/>
<feBlend mode="normal" in2="BackgroundImageFix" result="effect1_dropShadow"/>
<feBlend mode="normal" in="SourceGraphic" in2="effect1_dropShadow" result="shape"/>
</filter>
</defs>
</svg>
