<svg width="120" height="120" viewBox="0 0 120 120" fill="none" xmlns="http://www.w3.org/2000/svg">
<g filter="url(#filter0_d)">
<path d="M45.333 56H51.9997V58.6667H45.333V56Z" fill="#DDC472"/>
<path d="M28 56H42.6667V58.6667H28V56Z" fill="#DDC472"/>
<path d="M28 30.6667H30.6667V33.3334H28V30.6667Z" fill="#DDC472"/>
<path d="M28 61.3333H52V63.9999H28V61.3333Z" fill="#DDC472"/>
<path d="M28 66.6667H52V69.3334H28V66.6667Z" fill="#DDC472"/>
<path d="M28 72H52V74.6667H28V72Z" fill="#DDC472"/>
<path d="M45.333 36H51.9997V38.6667H45.333V36Z" fill="#DDC472"/>
<path d="M28 36H42.6667V38.6667H28V36Z" fill="#DDC472"/>
<path d="M45.333 41.3333H51.9997V43.9999H45.333V41.3333Z" fill="#DDC472"/>
<path d="M28 41.3333H42.6667V43.9999H28V41.3333Z" fill="#DDC472"/>
<path d="M28 50.6667H30.6667V53.3334H28V50.6667Z" fill="#DDC472"/>
<path d="M98.5053 47.3813C99.4693 46.416 100 45.1347 100 43.772C100 40.956 97.7093 38.6667 94.896 38.6667C93.532 38.6667 92.2507 39.1973 91.2867 40.1627L89.3333 42.1147V38.6667C89.3333 34.9907 86.3427 32 82.6667 32H68V26.6667C68 22.9907 65.0093 20 61.3333 20H29.3333C25.6573 20 22.6667 22.9907 22.6667 26.6667V89.3333H21.3333C20.596 89.3333 20 89.9307 20 90.6667V93.3333C20 97.0093 22.9907 100 26.6667 100H52C54.9413 100 57.3333 97.608 57.3333 94.6667V88.552L86.6667 59.2187V86.6667H76V89.3333H86.6667V92H68V94.6667H97.3333V97.3333H60V100H98.6667C99.404 100 100 99.4027 100 98.6667V93.3333C100 92.5973 99.404 92 98.6667 92H89.3333V56.552L98.5053 47.3813ZM52 86.6667V83.2187L89.3333 45.8853L92.7813 49.3333L55.448 86.6667H52ZM93.172 42.0467C93.6267 41.5933 94.2533 41.3333 94.896 41.3333C96.24 41.3333 97.3333 42.4267 97.3333 43.772C97.3333 44.4227 97.08 45.036 96.62 45.496L94.6667 47.448L91.2187 44L93.172 42.0467ZM86.6667 38.6667V44.7813L57.3333 74.1147V49.3333H72C75.676 49.3333 78.6667 46.3427 78.6667 42.6667V38.6667C78.6667 36.4613 80.4613 34.6667 82.6667 34.6667C84.872 34.6667 86.6667 36.4613 86.6667 38.6667ZM77.368 34.6667C76.5213 35.784 76 37.16 76 38.6667V42.6667C76 44.872 74.2053 46.6667 72 46.6667C69.7947 46.6667 68 44.872 68 42.6667V34.6667H77.368ZM65.3333 26.6667V42.6667C65.3333 44.1733 65.8547 45.5493 66.7013 46.6667H57.3333V26.6667C57.3333 24.4613 59.128 22.6667 61.3333 22.6667C63.5387 22.6667 65.3333 24.4613 65.3333 26.6667ZM26.6667 97.3333C24.4613 97.3333 22.6667 95.5387 22.6667 93.3333V92H46.6667V94.6667C46.6667 95.6373 46.9267 96.548 47.3827 97.3333H26.6667ZM52 97.3333C50.5293 97.3333 49.3333 96.1373 49.3333 94.6667V90.6667C49.3333 89.9307 48.7373 89.3333 48 89.3333H25.3333V26.6667C25.3333 24.4613 27.128 22.6667 29.3333 22.6667H56.0347C55.188 23.784 54.6667 25.16 54.6667 26.6667V76.7813L49.724 81.724C49.4733 81.9733 49.3333 82.3133 49.3333 82.6667V88C49.3333 88.736 49.9293 89.3333 50.6667 89.3333H54.6667V94.6667C54.6667 96.1373 53.4707 97.3333 52 97.3333Z" fill="#DDC472"/>
</g>
<defs>
<filter id="filter0_d" x="0" y="0" width="120" height="120" filterUnits="userSpaceOnUse" color-interpolation-filters="sRGB">
<feFlood flood-opacity="0" result="BackgroundImageFix"/>
<feColorMatrix in="SourceAlpha" type="matrix" values="0 0 0 0 0 0 0 0 0 0 0 0 0 0 0 0 0 0 127 0"/>
<feOffset/>
<feGaussianBlur stdDeviation="10"/>
<feColorMatrix type="matrix" values="0 0 0 0 0.866667 0 0 0 0 0.768627 0 0 0 0 0.447059 0 0 0 0.4 0"/>
<feBlend mode="normal" in2="BackgroundImageFix" result="effect1_dropShadow"/>
<feBlend mode="normal" in="SourceGraphic" in2="effect1_dropShadow" result="shape"/>
</filter>
</defs>
</svg>
