<svg width="120" height="120" viewBox="0 0 120 120" fill="none" xmlns="http://www.w3.org/2000/svg">
<g filter="url(#filter0_d)">
<path d="M98.6667 20H21.3333C20.596 20 20 20.5973 20 21.3333V80C20 80.736 20.596 81.3333 21.3333 81.3333H26.6667V78.6667H22.6667V44H62.6667C63.404 44 64 43.4027 64 42.6667V22.6667H68V45.3333C68 45.8747 68.3267 46.3627 68.828 46.568L97.3333 58.2293V66.0093L76.508 57.4347C76.3467 57.3667 76.1747 57.3333 76 57.3333H69.3333C68.596 57.3333 68 57.9307 68 58.6667V69.3333H70.6667V60H75.736L97.3333 68.8933V78.6667H74.6667V81.3333H98.6667C99.404 81.3333 100 80.736 100 80V21.3333C100 20.5973 99.404 20 98.6667 20ZM22.6667 22.6667H38.6667V41.3333H22.6667V22.6667ZM61.3333 41.3333H41.3333V22.6667H61.3333V41.3333ZM70.6667 44.4387V22.6667H97.3333V55.3467L70.6667 44.4387Z" fill="#DDC472"/>
<path d="M65.333 66.6665C65.333 55.6385 56.361 46.6665 45.333 46.6665C34.305 46.6665 25.333 55.6385 25.333 66.6665C25.333 77.6945 34.305 86.6665 45.333 86.6665C49.3437 86.6665 53.0743 85.4692 56.209 83.4278L58.1143 85.3332L53.7237 89.7238L55.609 91.6092L56.6663 90.5518L63.5143 97.4012C65.193 99.0772 67.4197 99.9998 69.7903 99.9998C74.685 99.9998 78.6663 96.0185 78.6663 91.1238C78.6663 88.7518 77.7437 86.5225 76.0663 84.8478L69.2183 77.9998L70.2757 76.9425L68.3903 75.0572L63.9997 79.4478L62.0943 77.5425C64.1357 74.4078 65.333 70.6772 65.333 66.6665ZM27.9997 66.6665C27.9997 57.1092 35.7757 49.3332 45.333 49.3332C54.8903 49.3332 62.6663 57.1092 62.6663 66.6665C62.6663 76.2238 54.8903 83.9998 45.333 83.9998C35.7757 83.9998 27.9997 76.2238 27.9997 66.6665ZM74.181 86.7345C75.3543 87.9065 75.9997 89.4652 75.9997 91.1238C75.9997 94.5478 73.2143 97.3332 69.7903 97.3332C68.133 97.3332 66.573 96.6878 65.3997 95.5145L58.5517 88.6665L67.333 79.8852L74.181 86.7345ZM62.1143 81.3332L59.9997 83.4478L58.361 81.8092C59.117 81.1572 59.8237 80.4505 60.4757 79.6945L62.1143 81.3332Z" fill="#DDC472"/>
<path d="M45.3337 52C37.247 52 30.667 58.58 30.667 66.6667C30.667 74.7533 37.247 81.3333 45.3337 81.3333C53.4203 81.3333 60.0003 74.7533 60.0003 66.6667C60.0003 58.58 53.4203 52 45.3337 52ZM45.3337 78.6667C38.7163 78.6667 33.3337 73.2827 33.3337 66.6667C33.3337 60.0507 38.7163 54.6667 45.3337 54.6667C51.951 54.6667 57.3337 60.0507 57.3337 66.6667C57.3337 73.2827 51.951 78.6667 45.3337 78.6667Z" fill="#DDC472"/>
<path d="M54.1874 64.3091L47.0408 58.3531C46.0514 57.5291 44.6154 57.5291 43.6248 58.3531L36.4794 64.3078C36.0488 64.6678 35.8888 65.2571 36.0794 65.7851C36.2701 66.3131 36.7714 66.6664 37.3328 66.6664H38.6661V70.6664C38.6661 72.1371 39.8621 73.3331 41.3328 73.3331H49.3328C50.8034 73.3331 51.9994 72.1371 51.9994 70.6664V66.6664H53.3328C53.8941 66.6664 54.3954 66.3144 54.5861 65.7864C54.7768 65.2584 54.6181 64.6678 54.1874 64.3091ZM49.3328 66.6664V70.6664H46.6661V66.6664H43.9994V70.6664H41.3328V66.6664C41.3328 65.8211 40.9368 65.0664 40.3221 64.5784L45.3328 60.4024L50.3434 64.5784C49.7288 65.0664 49.3328 65.8211 49.3328 66.6664Z" fill="#DDC472"/>
<path d="M91.5214 30.9759L84.3748 25.0199C83.3854 24.1959 81.9494 24.1959 80.9588 25.0199L73.8134 30.9745C73.3828 31.3345 73.2228 31.9239 73.4134 32.4519C73.6041 32.9799 74.1054 33.3332 74.6668 33.3332H76.0001V37.3332C76.0001 38.8039 77.1961 39.9999 78.6668 39.9999H86.6668C88.1374 39.9999 89.3334 38.8039 89.3334 37.3332V33.3332H90.6668C91.2281 33.3332 91.7294 32.9812 91.9201 32.4532C92.1108 31.9252 91.9521 31.3345 91.5214 30.9759ZM86.6668 33.3332V37.3332H84.0001V33.3332H81.3334V37.3332H78.6668V33.3332C78.6668 32.4879 78.2708 31.7332 77.6561 31.2452L82.6668 27.0692L87.6774 31.2452C87.0628 31.7332 86.6668 32.4879 86.6668 33.3332Z" fill="#DDC472"/>
</g>
<defs>
<filter id="filter0_d" x="0" y="0" width="120" height="120" filterUnits="userSpaceOnUse" color-interpolation-filters="sRGB">
<feFlood flood-opacity="0" result="BackgroundImageFix"/>
<feColorMatrix in="SourceAlpha" type="matrix" values="0 0 0 0 0 0 0 0 0 0 0 0 0 0 0 0 0 0 127 0"/>
<feOffset/>
<feGaussianBlur stdDeviation="10"/>
<feColorMatrix type="matrix" values="0 0 0 0 0.866667 0 0 0 0 0.768627 0 0 0 0 0.447059 0 0 0 0.4 0"/>
<feBlend mode="normal" in2="BackgroundImageFix" result="effect1_dropShadow"/>
<feBlend mode="normal" in="SourceGraphic" in2="effect1_dropShadow" result="shape"/>
</filter>
</defs>
</svg>
