<svg width="120" height="120" viewBox="0 0 120 120" fill="none" xmlns="http://www.w3.org/2000/svg">
<g filter="url(#filter0_d)">
<path d="M99.3693 44.2L86.6667 36.316V21.3333C86.6667 20.5973 86.0693 20 85.3333 20H74.6667C73.9307 20 73.3333 20.5973 73.3333 21.3333V28.04L60.7027 20.2C60.272 19.9333 59.728 19.9333 59.296 20.2L20.6293 44.2C20.2387 44.444 20 44.872 20 45.3333V53.3333H20.0093C20.0093 53.4547 20.016 53.5773 20.0507 53.6987C20.2147 54.272 20.7373 54.6667 21.3333 54.6667H25.3333V98.6667C25.3333 99.4027 25.9307 100 26.6667 100H93.3333C94.0693 100 94.6667 99.4027 94.6667 98.6667V84H96C98.2053 84 100 82.2053 100 80V64C100 61.7947 98.2053 60 96 60H94.6667V54.6667H98.6667C99.2627 54.6667 99.7853 54.272 99.9493 53.6987C99.984 53.5773 99.9907 53.4547 99.9907 53.3333H100V45.3333C100 44.872 99.7613 44.444 99.3693 44.2ZM76 22.6667H84V34.66L76 29.6947V22.6667ZM60 22.9027L97.3333 46.0747V50.936L60.7027 28.2C60.272 27.9333 59.728 27.9333 59.296 28.2L22.6667 50.936V46.0747L60 22.9027ZM26.0093 52L60 30.9027L93.9907 52H26.0093ZM49.3333 97.3333H36V72H49.3333V97.3333ZM78.6667 84V97.3333H76V84H78.6667ZM92 97.3333H81.3333V84H92V97.3333ZM97.3333 64V65.3333H93.3333V68H97.3333V70.6667H90.6667V73.3333H97.3333V80C97.3333 80.7347 96.7347 81.3333 96 81.3333H58.6667C57.932 81.3333 57.3333 80.7347 57.3333 80V78.6667H64V76H57.3333V73.3333H68V70.6667H57.3333V64C57.3333 63.2653 57.932 62.6667 58.6667 62.6667H96C96.7347 62.6667 97.3333 63.2653 97.3333 64ZM92 60H58.6667C56.4613 60 54.6667 61.7947 54.6667 64V80C54.6667 82.2053 56.4613 84 58.6667 84H73.3333V97.3333H52V70.6667C52 69.9307 51.4027 69.3333 50.6667 69.3333H34.6667C33.9307 69.3333 33.3333 69.9307 33.3333 70.6667V97.3333H28V54.6667H92V60Z" fill="#DDC472"/>
<path d="M53.333 42.6667C53.333 46.3427 56.3237 49.3333 59.9997 49.3333C63.6757 49.3333 66.6663 46.3427 66.6663 42.6667C66.6663 38.9907 63.6757 36 59.9997 36C56.3237 36 53.333 38.9907 53.333 42.6667ZM63.9997 42.6667C63.9997 44.872 62.205 46.6667 59.9997 46.6667C57.7943 46.6667 55.9997 44.872 55.9997 42.6667C55.9997 40.4613 57.7943 38.6667 59.9997 38.6667C62.205 38.6667 63.9997 40.4613 63.9997 42.6667Z" fill="#DDC472"/>
</g>
<defs>
<filter id="filter0_d" x="0" y="0" width="120" height="120" filterUnits="userSpaceOnUse" color-interpolation-filters="sRGB">
<feFlood flood-opacity="0" result="BackgroundImageFix"/>
<feColorMatrix in="SourceAlpha" type="matrix" values="0 0 0 0 0 0 0 0 0 0 0 0 0 0 0 0 0 0 127 0"/>
<feOffset/>
<feGaussianBlur stdDeviation="10"/>
<feColorMatrix type="matrix" values="0 0 0 0 0.866667 0 0 0 0 0.768627 0 0 0 0 0.447059 0 0 0 0.4 0"/>
<feBlend mode="normal" in2="BackgroundImageFix" result="effect1_dropShadow"/>
<feBlend mode="normal" in="SourceGraphic" in2="effect1_dropShadow" result="shape"/>
</filter>
</defs>
</svg>
