<svg width="120" height="120" viewBox="0 0 120 120" fill="none" xmlns="http://www.w3.org/2000/svg">
<g filter="url(#filter0_d)">
<path d="M52.3818 67.0562L65.713 53.725L67.5984 55.6103L54.2672 68.9415L52.3818 67.0562Z" fill="#DDC472"/>
<path d="M65.333 61.3333C63.1277 61.3333 61.333 63.1279 61.333 65.3333C61.333 67.5386 63.1277 69.3333 65.333 69.3333C67.5383 69.3333 69.333 67.5386 69.333 65.3333C69.333 63.1279 67.5383 61.3333 65.333 61.3333ZM65.333 66.6666C64.597 66.6666 63.9997 66.0693 63.9997 65.3333C63.9997 64.5973 64.597 63.9999 65.333 63.9999C66.069 63.9999 66.6663 64.5973 66.6663 65.3333C66.6663 66.0693 66.069 66.6666 65.333 66.6666Z" fill="#DDC472"/>
<path d="M58.666 57.3333C58.666 55.1279 56.8713 53.3333 54.666 53.3333C52.4607 53.3333 50.666 55.1279 50.666 57.3333C50.666 59.5386 52.4607 61.3333 54.666 61.3333C56.8713 61.3333 58.666 59.5386 58.666 57.3333ZM53.3327 57.3333C53.3327 56.5973 53.93 55.9999 54.666 55.9999C55.402 55.9999 55.9993 56.5973 55.9993 57.3333C55.9993 58.0693 55.402 58.6666 54.666 58.6666C53.93 58.6666 53.3327 58.0693 53.3327 57.3333Z" fill="#DDC472"/>
<path d="M73.3332 39.9998H67.9999C67.2626 39.9998 66.6666 40.5958 66.6666 41.3331V43.6251L60.8332 38.9585C60.3466 38.5705 59.6532 38.5705 59.1666 38.9585L39.1666 54.9585C38.7252 55.3131 38.5546 55.9078 38.7426 56.4411C38.9306 56.9745 39.4332 57.3331 39.9999 57.3331H41.3332V74.6665C41.3332 75.4038 41.9292 75.9998 42.6666 75.9998H77.3332C78.0706 75.9998 78.6666 75.4038 78.6666 74.6665V57.3331H79.9999C80.5666 57.3331 81.0706 56.9745 81.2572 56.4411C81.4439 55.9078 81.2746 55.3118 80.8332 54.9585L74.6666 50.0265V41.3331C74.6666 40.5958 74.0706 39.9998 73.3332 39.9998ZM76.5319 54.9331C76.2092 55.1771 75.9999 55.5638 75.9999 55.9998V73.3331H43.9999V55.9998C43.9999 55.5638 43.7906 55.1771 43.4679 54.9331L59.9999 41.7065L67.1666 47.4411C67.5666 47.7611 68.1172 47.8238 68.5786 47.6011C69.0399 47.3785 69.3332 46.9131 69.3332 46.3998V42.6665H71.9999V50.6665C71.9999 51.0718 72.1839 51.4545 72.4999 51.7078L76.5319 54.9331Z" fill="#DDC472"/>
<path d="M99.441 26.916L90.1077 20.2493C89.8757 20.084 89.605 20 89.333 20H30.6663C29.929 20 29.333 20.596 29.333 21.3333V66.6667H31.9997V22.6667H85.173L79.225 26.916C78.753 27.252 78.553 27.856 78.7303 28.408C78.9077 28.9587 79.4197 29.3333 79.9997 29.3333H82.6663V38.6667C82.6663 39.404 83.2623 40 83.9997 40H94.6663C95.4037 40 95.9997 39.404 95.9997 38.6667V29.3333H98.6663C99.2463 29.3333 99.7583 28.9587 99.9357 28.408C100.113 27.856 99.913 27.2507 99.441 26.916ZM93.333 28V37.3333H85.333V28C85.333 27.3133 84.8143 26.7493 84.1477 26.6747L89.333 22.972L94.5183 26.6747C93.8517 26.7493 93.333 27.3133 93.333 28Z" fill="#DDC472"/>
<path d="M82.666 42.6667H95.9993V45.3334H82.666V42.6667Z" fill="#DDC472"/>
<path d="M82.666 48H95.9993V50.6667H82.666V48Z" fill="#DDC472"/>
<path d="M24 74.6667H37.3333V77.3334H24V74.6667Z" fill="#DDC472"/>
<path d="M24 69.3333H37.3333V71.9999H24V69.3333Z" fill="#DDC472"/>
<path d="M87.9998 97.3332H34.8264L40.7744 93.0839C41.2464 92.7479 41.4464 92.1439 41.2691 91.5919C41.0918 91.0412 40.5798 90.6666 39.9998 90.6666H37.3331V81.3333C37.3331 80.5959 36.7371 79.9999 35.9998 79.9999H25.3331C24.5958 79.9999 23.9998 80.5959 23.9998 81.3333V90.6666H21.3331C20.7531 90.6666 20.2411 91.0412 20.0638 91.5919C19.8864 92.1439 20.0878 92.7479 20.5584 93.0839L29.8918 99.7506C30.1238 99.9172 30.3944 99.9999 30.6664 99.9999H89.3331C90.0704 99.9999 90.6664 99.4039 90.6664 98.6666V53.3333H87.9998V97.3332ZM25.4811 93.3252C26.1478 93.2506 26.6664 92.6866 26.6664 91.9999V82.6666H34.6664V91.9999C34.6664 92.6866 35.1851 93.2506 35.8518 93.3252L30.6664 97.0279L25.4811 93.3252Z" fill="#DDC472"/>
</g>
<defs>
<filter id="filter0_d" x="0" y="0" width="120" height="120" filterUnits="userSpaceOnUse" color-interpolation-filters="sRGB">
<feFlood flood-opacity="0" result="BackgroundImageFix"/>
<feColorMatrix in="SourceAlpha" type="matrix" values="0 0 0 0 0 0 0 0 0 0 0 0 0 0 0 0 0 0 127 0"/>
<feOffset/>
<feGaussianBlur stdDeviation="10"/>
<feColorMatrix type="matrix" values="0 0 0 0 0.866667 0 0 0 0 0.768627 0 0 0 0 0.447059 0 0 0 0.4 0"/>
<feBlend mode="normal" in2="BackgroundImageFix" result="effect1_dropShadow"/>
<feBlend mode="normal" in="SourceGraphic" in2="effect1_dropShadow" result="shape"/>
</filter>
</defs>
</svg>
