<svg width="34" height="34" viewBox="0 0 34 34" fill="none" xmlns="http://www.w3.org/2000/svg">
<path d="M16.4997 20.9995C17.4929 20.9995 18.3428 20.6459 19.0499 19.939C19.7569 19.2322 20.1105 18.3818 20.1105 17.3887V11.6112C20.1105 10.6181 19.7572 9.76807 19.0499 9.06086C18.3428 8.35381 17.4929 8.00003 16.4997 8.00003C15.5066 8.00003 14.6566 8.35381 13.9494 9.06086C13.2422 9.76796 12.8887 10.6181 12.8887 11.6112V17.3887C12.8887 18.3818 13.2424 19.2322 13.9494 19.939C14.6565 20.6459 15.5066 20.9995 16.4997 20.9995Z" fill="white"/>
<path d="M22.7852 15.4365C22.6427 15.2936 22.473 15.2221 22.2774 15.2221C22.082 15.2221 21.9128 15.2936 21.7696 15.4365C21.6268 15.5795 21.5554 15.7487 21.5554 15.9442V17.3887C21.5554 18.7805 21.0606 19.971 20.0713 20.9602C19.0823 21.9495 17.8918 22.4442 16.4999 22.4442C15.1081 22.4442 13.9176 21.9495 12.9283 20.9602C11.9391 19.9712 11.4445 18.7806 11.4445 17.3887V15.9442C11.4445 15.7487 11.373 15.5795 11.2301 15.4365C11.0872 15.2936 10.9181 15.2221 10.7223 15.2221C10.5266 15.2221 10.3573 15.2936 10.2145 15.4365C10.0715 15.5795 10 15.7487 10 15.9442V17.3887C10 19.0513 10.5549 20.4977 11.6645 21.7276C12.774 22.9575 14.1451 23.6627 15.7777 23.8431V25.3328H12.8889C12.6933 25.3328 12.524 25.4044 12.3811 25.5474C12.2381 25.6902 12.1666 25.8595 12.1666 26.0552C12.1666 26.2504 12.2381 26.4201 12.3811 26.5629C12.524 26.7058 12.6933 26.7775 12.8889 26.7775H20.1107C20.3063 26.7775 20.4758 26.7058 20.6185 26.5629C20.7616 26.4201 20.8332 26.2505 20.8332 26.0552C20.8332 25.8596 20.7616 25.6903 20.6185 25.5474C20.4758 25.4044 20.3063 25.3328 20.1107 25.3328H17.2223V23.8431C18.8546 23.6627 20.2255 22.9575 21.3352 21.7276C22.4449 20.4977 23 19.0513 23 17.3887V15.9442C23 15.7487 22.9283 15.5796 22.7852 15.4365Z" fill="white"/>
<circle cx="17" cy="17" r="16.5" stroke="#DDC472"/>
</svg>
